<!DOCTYPE svg PUBLIC "-//W3C//DTD SVG 1.1//EN" "http://www.w3.org/Graphics/SVG/1.1/DTD/svg11.dtd">
<!-- Uploaded to: SVG Repo, www.svgrepo.com, Transformed by: SVG Repo Mixer Tools -->
<svg version="1.1" id="Layer_1" xmlns="http://www.w3.org/2000/svg" xmlns:xlink="http://www.w3.org/1999/xlink" viewBox="0 0 512.00 512.00" xml:space="preserve" width="256px" height="256px" fill="#ffffff" transform="rotate(45)" stroke="#ffffff" stroke-width="0.00512">
<g id="SVGRepo_bgCarrier" stroke-width="0"/>
<g id="SVGRepo_tracerCarrier" stroke-linecap="round" stroke-linejoin="round"/>
<g id="SVGRepo_iconCarrier"> <circle style="fill:#222222;" cx="256" cy="96.653" r="88.816"/> <path style="fill:#222222;" d="M256,504.163L256,504.163c-17.482,0-31.818-13.856-32.413-31.329l-19.832-275.871h104.49 l-19.832,275.871C287.818,490.307,273.482,504.163,256,504.163z"/> <path style="fill:#222222;" d="M310.335,196.963H201.665c-7.502,0-13.584-6.081-13.584-13.584l0,0 c0-7.502,6.081-13.584,13.584-13.584h108.669c7.502,0,13.584,6.081,13.584,13.584l0,0 C323.918,190.882,317.837,196.963,310.335,196.963z"/> <rect x="151.51" y="83.069" style="fill:#222222;" width="208.98" height="27.167"/> <path style="fill:#222222;" d="M256,327.053L256,327.053c-10.387,0-18.808-8.421-18.808-18.808v-61.649h37.616v61.649 C274.808,318.632,266.387,327.053,256,327.053z"/> <circle style="fill:#FFFFFF;" cx="256" cy="246.596" r="18.808"/> <path d="M310.335,161.959H201.665c-11.812,0-21.42,9.609-21.42,21.42c0,9.995,6.892,18.39,16.168,20.742l19.348,269.134 C216.581,494.994,234.226,512,256,512c21.774,0,39.419-17.006,40.239-38.744l19.348-269.134 c9.276-2.352,16.168-10.746,16.168-20.742C331.755,171.568,322.146,161.959,310.335,161.959z M201.665,177.633h108.669 c3.168,0,5.747,2.579,5.747,5.747c0,3.168-2.579,5.747-5.747,5.747H201.665c-3.168,0-5.747-2.579-5.747-5.747 C195.918,180.211,198.497,177.633,201.665,177.633z M280.596,472.272l-0.017,0.296c-0.451,13.323-11.248,23.759-24.579,23.759 s-24.128-10.435-24.579-23.758l-0.005-0.148l-19.24-267.62h87.649L280.596,472.272z"/> <path d="M368.327,75.233h-18.085c-4.534-19.977-15.371-38.139-31.013-51.68C301.684,8.364,279.229,0,256,0 s-45.684,8.364-63.229,23.553c-15.641,13.541-26.479,31.702-31.013,51.68h-18.085v42.841h18.065 c3.231,14.253,9.702,27.667,18.934,39.126l12.206-9.832c-6.979-8.663-12.066-18.658-14.982-29.294h156.206 c-2.914,10.636-8.003,20.632-14.982,29.294l12.207,9.832c9.232-11.459,15.703-24.874,18.934-39.126h18.065V75.233z M203.031,35.403 c14.695-12.723,33.507-19.73,52.969-19.73s38.274,7.007,52.969,19.73c12.199,10.561,20.909,24.469,25.122,39.829H177.909 C182.122,59.873,190.832,45.964,203.031,35.403z M352.653,102.4H159.347V90.906h193.306V102.4z"/> <path d="M256,334.89c14.691,0,26.645-11.954,26.645-26.645v-61.649c0-14.692-11.954-26.645-26.645-26.645 c-14.692,0-26.645,11.953-26.645,26.645v61.649C229.355,322.936,241.308,334.89,256,334.89z M256,319.216 c-6.05,0-10.971-4.921-10.971-10.971v-37.378c3.349,1.52,7.061,2.374,10.971,2.374c3.91,0,7.623-0.854,10.971-2.374v37.378 C266.971,314.295,262.05,319.216,256,319.216z M256,235.624c6.05,0,10.971,4.921,10.971,10.971c0,6.05-4.921,10.971-10.971,10.971 s-10.971-4.921-10.971-10.971C245.029,240.546,249.95,235.624,256,235.624z"/> </g>
</svg>